<svg width="14" height="14" viewBox="0 0 14 14" fill="none" xmlns="http://www.w3.org/2000/svg">
<path fill-rule="evenodd" clip-rule="evenodd" d="M0.565918 6.04317V4.76551C0.565918 4.33714 0.774905 3.95805 1.09556 3.72452H12.9051C13.2257 3.95805 13.4347 4.33714 13.4347 4.76551V6.0447C13.2432 6.26457 12.9902 6.43235 12.6975 6.51742L7.50903 8.0274C7.17411 8.1239 6.82784 8.1239 6.49292 8.0274L1.30449 6.51742C1.01107 6.43215 0.757539 6.26379 0.565918 6.04317ZM13.4347 7.29572V11.3191C13.4347 12.0249 12.8597 12.5999 12.1539 12.5999H1.84672C1.14088 12.5999 0.565918 12.0249 0.565918 11.3191V7.29209C0.711291 7.36776 0.865024 7.42984 1.02633 7.47677C6.06729 8.94413 6.4479 9.08624 6.83285 9.09917C6.88572 9.10094 6.93868 9.10028 7.00381 9.10028C7.0709 9.10028 7.12499 9.10097 7.17899 9.09906C7.56368 9.08548 7.94373 8.94025 12.9813 7.47677C13.14 7.43059 13.2914 7.36975 13.4347 7.29572ZM8.90548 1.53234C8.76236 1.44815 8.59593 1.3999 8.41901 1.3999H5.58629C5.41246 1.3999 5.24908 1.44616 5.10782 1.52683V2.72544H5.44138V2.36284H5.4367C5.4367 2.28337 5.50214 2.21326 5.58629 2.21326H8.41901C8.49847 2.21326 8.56859 2.2787 8.56859 2.36284V2.72544H8.90548V1.53234Z" fill="#338CFF"/>
<path d="M12.1539 3.48004H9.38195V2.36284C9.38195 1.82995 8.94722 1.3999 8.41901 1.3999H5.58629C5.0534 1.3999 4.61867 1.83463 4.61867 2.36284V3.48004H1.84672C1.14088 3.48004 0.565918 4.05499 0.565918 4.76551C0.565918 4.78825 0.566114 4.83331 0.566114 4.83331H13.4345C13.4345 4.83331 13.4347 4.78824 13.4347 4.76551C13.4347 4.05499 12.8597 3.48004 12.1539 3.48004ZM5.4367 2.36284C5.4367 2.28337 5.50214 2.21326 5.58629 2.21326H8.41901C8.49847 2.21326 8.56859 2.2787 8.56859 2.36284V3.48004H5.44138V2.36284H5.4367Z" fill="#338CFF"/>
</svg>
