<svg width="14" height="14" viewBox="0 0 14 14" fill="none" xmlns="http://www.w3.org/2000/svg">
<path fill-rule="evenodd" clip-rule="evenodd" d="M0.565979 6.04327V4.76561C0.565979 4.33724 0.774966 3.95815 1.09562 3.72462H12.9051C13.2258 3.95815 13.4348 4.33724 13.4348 4.76561V6.0448C13.2433 6.26467 12.9903 6.43245 12.6975 6.51752L7.50909 8.0275C7.17417 8.124 6.8279 8.124 6.49298 8.0275L1.30455 6.51752C1.01113 6.43225 0.7576 6.26389 0.565979 6.04327ZM13.4348 7.29582V11.3192C13.4348 12.025 12.8598 12.6 12.154 12.6H1.84678C1.14094 12.6 0.565979 12.025 0.565979 11.3192V7.29219C0.711352 7.36786 0.865085 7.42994 1.02639 7.47686C6.06735 8.94423 6.44796 9.08634 6.83291 9.09927C6.88579 9.10104 6.93874 9.10038 7.00387 9.10038C7.07096 9.10038 7.12505 9.10107 7.17905 9.09916C7.56375 9.08558 7.94379 8.94035 12.9813 7.47686C13.1401 7.43069 13.2915 7.36985 13.4348 7.29582ZM8.90554 1.53244C8.76242 1.44825 8.59599 1.4 8.41907 1.4H5.58635C5.41252 1.4 5.24914 1.44626 5.10788 1.52693V2.72554H5.44144V2.36294H5.43676C5.43676 2.28347 5.50221 2.21336 5.58635 2.21336H8.41907C8.49853 2.21336 8.56865 2.2788 8.56865 2.36294V2.72554H8.90554V1.53244Z" fill="white"/>
<path d="M12.154 3.48013H9.38201V2.36294C9.38201 1.83005 8.94728 1.4 8.41907 1.4H5.58635C5.05346 1.4 4.61873 1.83473 4.61873 2.36294V3.48013H1.84678C1.14094 3.48013 0.565979 4.05509 0.565979 4.76561C0.565979 4.78835 0.566175 4.83341 0.566175 4.83341H13.4346C13.4346 4.83341 13.4348 4.78834 13.4348 4.76561C13.4348 4.05509 12.8598 3.48013 12.154 3.48013ZM5.43676 2.36294C5.43676 2.28347 5.50221 2.21336 5.58635 2.21336H8.41907C8.49853 2.21336 8.56865 2.2788 8.56865 2.36294V3.48013H5.44144V2.36294H5.43676Z" fill="white"/>
</svg>
