<svg width="14" height="14" viewBox="0 0 14 14" fill="none" xmlns="http://www.w3.org/2000/svg">
<path d="M13.4406 9.91339C13.309 9.91339 13.1773 9.87734 13.0786 9.7692C12.9799 9.66105 12.947 9.5529 12.947 9.37266V4.83052L7.15539 8.25515C7.08958 8.2912 6.99086 8.32725 6.92505 8.3633C6.85923 8.39935 6.76051 8.39935 6.66179 8.39935C6.56307 8.39935 6.49726 8.39935 6.43144 8.3633C6.36563 8.3633 6.29982 8.32725 6.2011 8.25515L0.212066 4.65028C0.113346 4.61423 0.047532 4.54213 0.0146252 4.47004C-0.0182815 4.39794 0.0146252 4.28979 0.0146252 4.18165C0.0146252 4.0735 0.047532 4.00141 0.0804388 3.89326C0.113346 3.78511 0.179159 3.74906 0.277879 3.71302L6.234 0.144195C6.29982 0.108146 6.39854 0.0720973 6.46435 0.0360487C6.53016 -3.47694e-08 6.62888 0 6.7276 0C6.82632 0 6.89214 -3.47694e-08 6.99086 0.0360487C7.05667 0.0720973 7.15539 0.108146 7.22121 0.144195L13.7367 4.0014C13.8355 4.0735 13.9013 4.1456 13.9342 4.2177C13.9671 4.28979 14 4.39794 14 4.50609V9.33661C14 9.48081 13.9671 9.625 13.8684 9.73315C13.7038 9.84129 13.5722 9.91339 13.4406 9.91339ZM6.6947 14C6.59598 14 6.53016 14 6.43144 13.964C6.36563 13.964 6.26691 13.9279 6.2011 13.8558L2.41682 11.5847C2.25229 11.4766 2.15356 11.3684 2.05484 11.1882C1.95612 11.008 1.92322 10.8277 1.92322 10.6475V6.62968L6.00366 9.08099L6.33272 9.26124C6.43144 9.33333 6.56307 9.33333 6.6947 9.33333C6.82632 9.33333 6.92505 9.29728 7.05667 9.26124C7.1883 9.18914 7.28702 9.15309 7.38574 9.08099L11.4662 6.62968V10.6475C11.4662 10.8638 11.4333 11.044 11.3345 11.1882C11.2358 11.3684 11.1042 11.4766 10.9726 11.5847L7.1883 13.8558C7.12249 13.8919 7.02377 13.9279 6.95795 13.964C6.85923 14 6.76051 14 6.6947 14Z" fill="#338CFF"/>
</svg>
