<svg width="16" height="16" viewBox="0 0 16 16" fill="none" xmlns="http://www.w3.org/2000/svg">
<path fill-rule="evenodd" clip-rule="evenodd" d="M9.08698 2.67525C8.63641 1.78452 7.36367 1.78452 6.9131 2.67525C6.62359 3.24758 5.93927 3.49713 5.34947 3.24511C4.43659 2.85504 3.46607 3.66368 3.68497 4.63196L3.69299 4.66743C3.83471 5.29434 3.47097 5.92493 2.85735 6.11614C1.90282 6.41357 1.68733 7.66883 2.4811 8.27671C2.99199 8.66795 3.116 9.39609 2.76955 9.93835C2.23387 10.7768 2.85816 11.888 3.85186 11.8372C4.49292 11.8045 5.0513 12.2805 5.12983 12.9175C5.25144 13.9041 6.44424 14.3509 7.16843 13.67C7.63578 13.2306 8.3643 13.2306 8.83165 13.67C9.55584 14.3509 10.7486 13.9041 10.8702 12.9175C10.9488 12.2805 11.5072 11.8045 12.1482 11.8372C13.1419 11.888 13.7662 10.7768 13.2305 9.93835C12.8841 9.39609 13.0081 8.66795 13.519 8.27671C14.3127 7.66883 14.0973 6.41357 13.1427 6.11614C12.5291 5.92493 12.1654 5.29433 12.3071 4.66743L12.3151 4.63196C12.534 3.66368 11.5635 2.85504 10.6506 3.24511C10.0608 3.49713 9.37649 3.24758 9.08698 2.67525ZM10.3479 5.86379C10.2309 5.70634 10.0593 5.60746 9.86958 5.60746C9.67984 5.60746 9.50826 5.70636 9.39122 5.86377L7.23408 8.76535L6.60897 7.92452C6.49192 7.76708 6.32034 7.66821 6.13061 7.66822C5.94089 7.66822 5.76931 7.76711 5.65227 7.9245C5.43609 8.21526 5.43611 8.65705 5.65226 8.94779L6.75573 10.432C6.87287 10.5896 7.04455 10.6883 7.23416 10.6883C7.42375 10.6883 7.59535 10.5895 7.71243 10.432L10.3479 6.88705C10.5641 6.59627 10.564 6.1545 10.3479 5.86379Z" fill="white"/>
</svg>
