<svg width="16" height="16" viewBox="0 0 16 16" fill="none" xmlns="http://www.w3.org/2000/svg">
<path fill-rule="evenodd" clip-rule="evenodd" d="M9.08686 2.67537C8.63628 1.78464 7.36355 1.78464 6.91298 2.67537C6.62346 3.2477 5.93915 3.49725 5.34934 3.24523C4.43647 2.85517 3.46595 3.6638 3.68485 4.63208L3.69286 4.66755C3.83459 5.29446 3.47085 5.92505 2.85723 6.11626C1.9027 6.41369 1.68721 7.66895 2.48098 8.27683C2.99187 8.66807 3.11588 9.39621 2.76943 9.93848C2.23374 10.777 2.85804 11.8881 3.85174 11.8373C4.4928 11.8046 5.05118 12.2806 5.12971 12.9177C5.25132 13.9042 6.44412 14.351 7.16831 13.6701C7.63566 13.2308 8.36417 13.2308 8.83152 13.6701C9.55572 14.351 10.7485 13.9042 10.8701 12.9177C10.9487 12.2806 11.507 11.8046 12.1481 11.8373C13.1418 11.8881 13.7661 10.777 13.2304 9.93848C12.884 9.39621 13.008 8.66807 13.5189 8.27683C14.3126 7.66895 14.0971 6.41369 13.1426 6.11626C12.529 5.92505 12.1652 5.29446 12.307 4.66755L12.315 4.63208C12.5339 3.6638 11.5634 2.85517 10.6505 3.24523C10.0607 3.49725 9.37637 3.2477 9.08686 2.67537ZM10.3478 5.86391C10.2308 5.70646 10.0592 5.60758 9.86946 5.60758C9.67972 5.60758 9.50814 5.70648 9.3911 5.86389L7.23396 8.76547L6.60885 7.92464C6.4918 7.7672 6.32022 7.66833 6.13049 7.66834C5.94077 7.66834 5.76919 7.76723 5.65215 7.92463C5.43597 8.21538 5.43599 8.65717 5.65214 8.94792L6.7556 10.4322C6.87275 10.5897 7.04443 10.6885 7.23404 10.6884C7.42363 10.6884 7.59523 10.5896 7.71231 10.4321L10.3478 6.88717C10.564 6.59639 10.5639 6.15462 10.3478 5.86391Z" fill="#338CFF"/>
</svg>
